<svg width="64" height="64" viewBox="0 0 64 64" fill="none" xmlns="http://www.w3.org/2000/svg">
<path d="M53.3434 47.2685C54.2837 44.2275 53.6964 40.7479 53.6683 40.5868C53.6068 40.2334 53.279 39.9898 52.9231 40.0335L41.707 41.3991C39.6587 41.6486 37.66 42.3725 35.927 43.4927C34.3788 44.4935 33.0318 45.8173 31.9999 47.3473C30.9682 45.8175 29.6212 44.4935 28.0728 43.4927C26.3398 42.3725 24.3411 41.6486 22.2928 41.3991L18.7934 40.9732C18.4245 40.9283 18.088 41.1912 18.043 41.5608C17.9981 41.9302 18.2612 42.2661 18.6305 42.3111L22.1299 42.7368C25.9186 43.1982 29.2254 45.3356 31.2022 48.6005L31.3261 48.8055V50.6086H29.3417L29.0294 49.7493C28.482 48.2443 27.0383 47.2332 25.4368 47.2332H12.0658C11.3065 45.1459 11.4522 42.6114 11.5764 41.452L15.8437 41.9714C16.2121 42.0162 16.5491 41.7534 16.594 41.384C16.639 41.0145 16.376 40.6786 16.0066 40.6337L11.0768 40.0335C10.7196 39.9898 10.3931 40.2335 10.3316 40.5868C10.3035 40.7478 9.71632 44.2274 10.6565 47.2685C9.71498 47.4454 9 48.2732 9 49.2654C9 50.386 9.91164 51.2977 11.0323 51.2977H25.2669L25.5799 52.1578C26.1275 53.6628 27.5709 54.674 29.1717 54.674H34.8284C36.4291 54.674 37.8726 53.6629 38.4202 52.1574L38.7324 51.2977H48.9832C49.3554 51.2977 49.657 50.996 49.657 50.6239C49.657 50.2517 49.3554 49.95 48.9832 49.95H38.5631C38.1002 49.95 37.6825 50.2421 37.5237 50.6778L37.1537 51.6971C36.7992 52.6716 35.8646 53.3264 34.8284 53.3264H29.1717C28.1355 53.3264 27.2009 52.6716 26.8464 51.6971L26.4762 50.6797C26.3193 50.2433 25.9016 49.95 25.437 49.95H11.0323C10.6547 49.95 10.3477 49.6429 10.3477 49.2654C10.3477 48.8879 10.6547 48.5808 11.0323 48.5808H25.4369C26.4738 48.5808 27.4086 49.2355 27.7631 50.2098L28.1336 51.2297C28.2923 51.6642 28.7095 51.9562 29.1717 51.9562H31.9948C31.9966 51.9562 31.9983 51.9565 32 51.9565C32.0017 51.9565 32.0034 51.9562 32.0052 51.9562H34.8283C35.2905 51.9562 35.7077 51.6642 35.8668 51.2286L36.2369 50.21C36.5913 49.2355 37.5262 48.5808 38.5631 48.5808H52.9677C53.3453 48.5808 53.6523 48.8879 53.6523 49.2654C53.6523 49.6429 53.3453 49.95 52.9677 49.95H52.1277C51.7555 49.95 51.4539 50.2517 51.4539 50.6239C51.4539 50.996 51.7555 51.2977 52.1277 51.2977H52.9677C54.0884 51.2977 55 50.386 55 49.2654C55 48.2732 54.285 47.4454 53.3434 47.2685ZM34.9704 49.7496L34.6582 50.6086H32.6738V48.8055L32.7975 48.6009C34.7745 45.3356 38.0813 43.1983 41.8699 42.7368L52.4235 41.4519C52.5477 42.6117 52.6934 45.146 51.9341 47.2331H38.5631C36.9616 47.2331 35.5178 48.2443 34.9704 49.7496Z" fill="#2F5951"/>
<path d="M42.3865 16.3967C42.2841 15.7535 41.7209 15.2735 41.0713 15.2735C41.0681 15.2735 41.0617 15.2735 41.0585 15.2735C37.0201 15.3151 33.1257 16.7551 30.0313 19.3343C29.9353 18.2015 29.6121 17.0975 29.0777 16.0863C28.3481 14.7071 27.2505 13.5551 25.9097 12.7551C25.3689 12.4319 24.6937 12.5215 24.2713 12.9727C22.2617 15.1135 21.1801 17.9103 21.2281 20.8479C21.2729 23.6767 22.3609 26.3391 24.3001 28.3839C24.1177 29.0815 23.9801 29.7919 23.8873 30.5151C23.8489 30.8127 24.0569 31.0847 24.3577 31.1263C24.3801 31.1295 24.4057 31.1295 24.4281 31.1295C24.6969 31.1295 24.9305 30.9311 24.9657 30.6559C25.0649 29.9039 25.2121 29.1679 25.4105 28.4543C25.4329 28.4063 25.4457 28.3583 25.4521 28.3071C27.4137 21.4303 33.7561 16.4383 41.0777 16.3615C41.0777 16.3615 41.0777 16.3615 41.0809 16.3615C41.1961 16.3615 41.3049 16.4543 41.3241 16.5663C41.7273 19.1103 41.7401 21.6895 41.3625 24.2367C41.3561 24.2559 41.3497 24.2751 41.3465 24.2943C40.5945 27.5231 38.4953 30.2815 35.5801 31.8591C33.0105 33.2543 30.0185 33.6191 27.2121 32.9119C28.1593 32.2879 29.0681 31.6031 29.9353 30.8575C32.2233 28.8895 34.1465 26.5631 35.6505 23.9487C35.8009 23.6895 35.7113 23.3567 35.4489 23.2063C35.1897 23.0559 34.8569 23.1455 34.7065 23.4079C32.5113 27.1999 29.3721 30.3679 25.6409 32.6015C25.6249 32.6079 25.6121 32.6175 25.5961 32.6271C24.3993 33.3407 23.1449 33.9551 21.8393 34.4671C21.5609 34.5759 21.4201 34.8927 21.5321 35.1711C21.6153 35.3855 21.8201 35.5167 22.0377 35.5167C22.1049 35.5167 22.1721 35.5039 22.2361 35.4783C23.5289 34.9727 24.7705 34.3711 25.9609 33.6767C27.2857 34.1247 28.6617 34.3487 30.0345 34.3487C32.1273 34.3487 34.2105 33.8335 36.0857 32.8127C39.2409 31.1039 41.5257 28.1279 42.3673 24.6431C42.3865 24.5983 42.4025 24.5503 42.4089 24.4991C42.8217 21.8111 42.8121 19.0847 42.3865 16.3967ZM26.6905 23.0399C26.6841 22.4575 26.6585 21.9167 26.6137 21.3983C26.5145 20.2911 26.3257 19.1263 26.0377 17.8303C25.9737 17.5359 25.6825 17.3535 25.3881 17.4175C25.0937 17.4815 24.9113 17.7727 24.9753 18.0671C25.2537 19.3151 25.4361 20.4351 25.5289 21.4943C25.6185 22.5087 25.6281 23.6255 25.5545 24.9983C25.2089 25.6959 24.9081 26.4159 24.6585 27.1583C21.3817 23.2479 21.4937 17.5103 25.0585 13.7151C25.1289 13.6383 25.2505 13.6287 25.3497 13.6863C27.6825 15.0751 29.0553 17.5903 28.9689 20.2911C28.1113 21.1327 27.3497 22.0543 26.6905 23.0399Z" fill="#2F5951"/>
</svg>
