<svg width="48" height="48" viewBox="0 0 48 48" fill="none" xmlns="http://www.w3.org/2000/svg">
<path fill-rule="evenodd" clip-rule="evenodd" d="M27.6931 44.8126V41.5708L26.2154 40.0931C21.7478 40.5108 16.7674 35.4755 17.4907 30.9386C17.5139 30.7825 17.5859 30.6377 17.6963 30.5249C17.8068 30.4121 17.95 30.337 18.1057 30.3105C20.4314 29.9101 22.9525 31.1132 24.6869 32.8474C26.3254 34.4858 27.4837 36.813 27.2763 39.0326L27.6935 39.4498V19.7052L23.8219 15.839L13.8916 19.8971V44.8126H27.6931ZM24.6112 38.4887C23.3366 38.1956 22.0974 37.4495 21.0907 36.4429C19.8314 35.1836 18.8767 33.4225 18.9162 31.7332C19.6217 31.7292 20.3211 31.8649 20.9738 32.1327C23.1582 32.9912 25.1451 35.136 25.6718 37.4283L22.8886 34.645C22.8193 34.5737 22.7366 34.5169 22.6452 34.4778C22.5537 34.4388 22.4555 34.4183 22.3561 34.4175C22.2566 34.4168 22.1581 34.4358 22.0661 34.4735C21.9741 34.5112 21.8905 34.5669 21.8202 34.6372C21.7499 34.7075 21.6943 34.791 21.6566 34.883C21.6189 34.975 21.5998 35.0736 21.6006 35.173C21.6013 35.2724 21.6218 35.3706 21.6608 35.4621C21.6999 35.5535 21.7567 35.6362 21.828 35.7055L24.6112 38.4887ZM29.1931 39.4501L30.351 38.2921C30.0109 35.282 31.5952 32.0854 33.8291 29.8517C35.0444 28.6208 36.4988 27.6518 38.1029 27.0046C39.6713 26.3881 41.2553 26.1852 42.6619 26.4296C42.8175 26.4562 42.9607 26.5312 43.0712 26.644C43.1816 26.7568 43.2536 26.9016 43.2769 27.0577C43.781 30.2121 42.1998 33.527 39.8522 35.8745C37.6185 38.1082 34.4216 39.6927 31.4117 39.3527L29.1933 41.5711V44.8126H45.5625C45.7614 44.8126 45.9522 44.8916 46.0928 45.0322C46.2335 45.1729 46.3125 45.3637 46.3125 45.5626C46.3125 45.7615 46.2335 45.9523 46.0928 46.0929C45.9522 46.2336 45.7614 46.3126 45.5625 46.3126H2.4375C2.23859 46.3126 2.04782 46.2336 1.90717 46.0929C1.76652 45.9523 1.6875 45.7615 1.6875 45.5626V8.6907C1.68738 8.58261 1.71069 8.47578 1.75581 8.37756C1.80093 8.27934 1.8668 8.19206 1.94888 8.12173L8.13019 1.94829C8.24031 1.81834 8.39175 1.73018 8.55913 1.69857C8.72651 1.66697 8.89966 1.69383 9.04959 1.77467L24.2812 7.99948C24.4188 8.05541 24.5365 8.15106 24.6193 8.27422C24.7022 8.39737 24.7465 8.54244 24.7465 8.69089H24.75V14.652L28.9317 18.8284C29.0138 18.8987 29.0796 18.9859 29.1248 19.0841C29.1699 19.1824 29.1932 19.2892 29.1931 19.3972V39.4501ZM31.8399 36.8031L36.3102 32.3329C36.3795 32.2615 36.4622 32.2047 36.5537 32.1657C36.6451 32.1266 36.7434 32.1061 36.8428 32.1054C36.9422 32.1047 37.0407 32.1238 37.1327 32.1615C37.2247 32.1992 37.3083 32.2548 37.3786 32.3251C37.4489 32.3954 37.5045 32.479 37.5422 32.571C37.5799 32.6629 37.5989 32.7615 37.5982 32.8609C37.5975 32.9603 37.577 33.0586 37.5379 33.15C37.4989 33.2414 37.442 33.3242 37.3707 33.3935L32.9005 37.8637C36.4945 37.4879 39.9886 34.4037 41.3045 31.056C41.7407 29.9464 41.9326 28.8425 41.8631 27.8404C39.3749 27.668 36.7398 29.0618 34.8895 30.9121C33.2698 32.5313 32.064 34.6595 31.8399 36.8028V36.8031ZM3.1875 44.8126H7.9486V4.24376L3.1875 8.99876V44.8126ZM9.4486 44.8126V3.55058L23.25 9.19067V14.4601L12.8603 18.7058C12.7229 18.7618 12.6052 18.8574 12.5223 18.9806C12.4394 19.1037 12.3951 19.2488 12.3951 19.3972H12.3916V44.8126H9.4486Z" fill="#2F5951"/>
</svg>
