<svg width="64" height="64" viewBox="0 0 64 64" fill="none" xmlns="http://www.w3.org/2000/svg">
<g clip-path="url(#clip0_2043_17366)">
<path d="M49.575 57.1505C49.2313 57.1505 48.95 56.8692 48.95 56.5255V27.4755C48.95 27.1317 49.2313 26.8505 49.575 26.8505H56.3438C56.6875 26.8505 56.9688 27.1317 56.9688 27.4755V56.5255C56.9688 56.8692 56.6875 57.1505 56.3438 57.1505H49.575ZM55.7188 55.9005V28.1005H50.2V55.8942L55.7188 55.9005ZM38.7437 57.1505C38.4 57.1505 38.1187 56.8692 38.1187 56.5255V34.538C38.1187 34.1942 38.4 33.913 38.7437 33.913H45.5125C45.8563 33.913 46.1375 34.1942 46.1375 34.538V56.5255C46.1375 56.8692 45.8563 57.1505 45.5125 57.1505H38.7437ZM44.8875 55.9005V35.1692H39.3687V55.9005H44.8875ZM27.6562 57.1505C27.3125 57.1505 27.0312 56.8692 27.0312 56.5255V41.5692C27.0312 41.2255 27.3125 40.9442 27.6562 40.9442H34.4312C34.775 40.9442 35.0562 41.2255 35.0562 41.5692V56.5255C35.0562 56.8692 34.775 57.1505 34.4312 57.1505H27.6562ZM33.8 55.9005V42.1942H28.2812V55.9005H33.8Z" fill="#2F5951"/>
</g>
<g clip-path="url(#clip1_2043_17366)">
<path d="M34.394 9.60275C29.6171 4.81258 21.8614 4.80177 17.0712 9.57872C12.4492 14.1879 12.2536 21.6119 16.6265 26.4581L15.6911 27.3935C14.9353 26.6377 13.7099 26.6375 12.954 27.3933L12.9538 27.3935L6.56698 33.7803C5.81113 34.5361 5.81097 35.7615 6.56674 36.5173L6.56698 36.5176L7.47919 37.4298C8.23496 38.1853 9.46007 38.1853 10.2158 37.4298L16.6026 31.043C17.3585 30.2872 17.3586 29.0618 16.6029 28.306L16.6026 28.3057L17.5381 27.3703C22.5572 31.9061 30.3029 31.5143 34.8388 26.4952C39.22 21.6472 39.0243 14.2136 34.394 9.60275ZM15.6911 30.1302L9.30427 36.5169C9.05234 36.7688 8.64398 36.7688 8.39205 36.5169L7.47984 35.6041C7.2284 35.3522 7.2284 34.9444 7.47984 34.6925L13.8666 28.3057C14.1218 28.0618 14.5237 28.0618 14.7788 28.3057L15.6911 29.2186C15.9425 29.4704 15.9425 29.8783 15.6911 30.1302ZM33.4825 26.0252C29.1994 30.308 22.2553 30.308 17.9725 26.0249C13.6896 21.7419 13.6897 14.7978 17.9727 10.515C22.2557 6.23219 29.1995 6.23219 33.4825 10.515C37.7585 14.8009 37.7585 21.7393 33.4825 26.0252Z" fill="#2F5951"/>
<path d="M32.5685 11.4275L31.6562 12.3397C34.9259 15.6173 34.9259 20.9228 31.6562 24.2004L32.5685 25.1126C36.3422 21.3314 36.3422 15.2088 32.5685 11.4275Z" fill="#2F5951"/>
</g>
<defs>
<clipPath id="clip0_2043_17366">
<rect width="32" height="32" fill="white" transform="translate(26 26.0005)"/>
</clipPath>
<clipPath id="clip1_2043_17366">
<rect width="32" height="32" fill="white" transform="translate(6 6)"/>
</clipPath>
</defs>
</svg>
