<svg width="32" height="32" viewBox="0 0 32 32" fill="none" xmlns="http://www.w3.org/2000/svg">
<g clip-path="url(#clip0_2030_9872)">
<path d="M14.6875 31.7504C6.72719 31.7504 0.25 25.2732 0.25 17.3129C0.25 9.35255 6.72719 2.87537 14.6875 2.87537C17.4556 2.87537 20.1488 3.66418 22.4759 5.1578C22.7804 5.35337 22.8696 5.75893 22.6741 6.06474C22.4772 6.36924 22.0716 6.45849 21.7671 6.26293C19.6514 4.90449 17.2036 4.18787 14.6875 4.18787C7.45038 4.18787 1.5625 10.0757 1.5625 17.3129C1.5625 24.55 7.45038 30.4379 14.6875 30.4379C21.9246 30.4379 27.8125 24.55 27.8125 17.3129C27.8125 16.8797 27.7915 16.4532 27.7508 16.0319C27.7154 15.6709 27.9792 15.3494 28.3401 15.3152C28.7076 15.2851 29.0226 15.5436 29.0567 15.9046C29.1014 16.3679 29.125 16.8377 29.125 17.3129C29.125 25.2732 22.6478 31.7504 14.6875 31.7504Z" fill="#2F5951"/>
<path d="M16.6566 20.2662C16.4886 20.2662 16.3206 20.2019 16.192 20.0746L10.2857 14.1683C10.0298 13.9124 10.0298 13.4963 10.2857 13.2404C10.5416 12.9844 10.9577 12.9844 11.2136 13.2404L16.6553 18.682L30.6295 4.70782C30.8854 4.45188 31.3015 4.45188 31.5574 4.70782C31.8133 4.96376 31.8133 5.37982 31.5574 5.63576L17.1199 20.0733C16.9926 20.2019 16.8246 20.2662 16.6566 20.2662Z" fill="#2F5951"/>
</g>
<defs>
<clipPath id="clip0_2030_9872">
<rect width="31.5" height="31.5" fill="white" transform="translate(0.25 0.250366)"/>
</clipPath>
</defs>
</svg>
