<svg width="36" height="36" viewBox="0 0 36 36" fill="none" xmlns="http://www.w3.org/2000/svg">
<g clip-path="url(#clip0_2030_9886)">
<g clip-path="url(#clip1_2030_9886)">
<path d="M18.7416 4.56229C15.2316 4.22479 12.1041 5.18104 9.93847 7.25104C7.77847 9.31541 6.6816 12.3585 6.85597 15.8179L6.8616 15.891C6.86722 16.0542 6.87285 16.1385 6.90097 16.3242L4.53847 21.6342C4.3641 21.9492 4.3641 22.326 4.52722 22.6467C4.69035 22.9673 4.99972 23.181 5.3541 23.2204L6.52972 23.361V26.466C6.52972 27.7654 7.58722 28.8229 8.8866 28.8229H10.9285C11.2153 28.8229 11.446 29.0535 11.446 29.3404V35.4492C11.446 35.7529 11.6878 35.9948 11.9916 35.9948H24.4791C24.7829 35.9948 25.0247 35.7529 25.0247 35.4492V32.0235C25.0247 29.5485 25.7504 27.2367 27.1229 25.3354C29.0747 22.6242 30.2447 19.131 30.2447 15.9923C30.2391 9.82166 25.621 5.22604 18.7416 4.56229ZM26.2341 24.6998C24.7266 26.7923 23.9335 29.3235 23.9335 32.0292V34.9092H12.5372V29.346C12.5372 28.4573 11.8172 27.7373 10.9285 27.7373H8.8866C8.1891 27.7373 7.62097 27.1692 7.62097 26.4717V22.8829C7.62097 22.6073 7.41285 22.371 7.13722 22.3429L5.47785 22.146C5.47785 22.146 5.5116 22.1292 5.50597 22.1292L7.95285 16.6335C7.99785 16.5379 8.0091 16.431 7.99222 16.3298C7.95285 16.0823 7.95285 16.0148 7.9416 15.8517L7.93597 15.7729C7.77847 12.6342 8.7516 9.88916 10.681 8.04416C12.616 6.19916 15.4341 5.34979 18.6235 5.65354C24.9122 6.26104 29.131 10.4179 29.131 16.0035C29.1479 18.9117 28.0566 22.1685 26.2341 24.6998Z" fill="#2F5951"/>
<path d="M17.9987 2.90287C18.3025 2.90287 18.5444 2.66099 18.5444 2.35724V0.545991C18.5444 0.242241 18.3025 0.000366211 17.9987 0.000366211C17.695 0.000366211 17.4531 0.242241 17.4531 0.545991V2.35724C17.4531 2.65537 17.695 2.90287 17.9987 2.90287Z" fill="#2F5951"/>
<path d="M10.3819 4.53977C10.4832 4.71415 10.6688 4.80977 10.8544 4.80977C10.9444 4.80977 11.04 4.78727 11.1244 4.73665C11.3832 4.58477 11.4732 4.2529 11.3269 3.99415L10.4213 2.42477C10.2694 2.16602 9.93755 2.07602 9.6788 2.22227C9.42005 2.37415 9.33005 2.70602 9.4763 2.96477L10.3819 4.53977Z" fill="#2F5951"/>
<path d="M3.79208 9.06221L5.36146 9.96783C5.44583 10.0185 5.54146 10.041 5.63146 10.041C5.82271 10.041 6.00271 9.94533 6.10396 9.77096C6.25583 9.51221 6.16583 9.17471 5.90146 9.02846L4.33208 8.12283C4.06771 7.97096 3.73583 8.06096 3.58958 8.32533C3.44333 8.57846 3.53333 8.91596 3.79208 9.06221Z" fill="#2F5951"/>
<path d="M3.7182 16.0935H1.90695C1.6032 16.0935 1.36133 16.3354 1.36133 16.6391C1.36133 16.9429 1.6032 17.1848 1.90695 17.1848H3.7182C4.02195 17.1848 4.26383 16.9429 4.26383 16.6391C4.26383 16.3354 4.01633 16.0935 3.7182 16.0935Z" fill="#2F5951"/>
<path d="M34.0932 16.0935H32.282C31.9782 16.0935 31.7363 16.3354 31.7363 16.6391C31.7363 16.9429 31.9782 17.1848 32.282 17.1848H34.0932C34.397 17.1848 34.6388 16.9429 34.6388 16.6391C34.6388 16.3354 34.3913 16.0935 34.0932 16.0935Z" fill="#2F5951"/>
<path d="M32.4106 8.31979C32.2587 8.06104 31.9268 7.97104 31.6681 8.11729L30.0987 9.02292C29.84 9.17479 29.75 9.50667 29.8962 9.76542C29.9975 9.93979 30.1831 10.0354 30.3687 10.0354C30.4587 10.0354 30.5543 10.0129 30.6387 9.96229L32.2081 9.05667C32.4668 8.91604 32.5568 8.57854 32.4106 8.31979Z" fill="#2F5951"/>
<path d="M24.8665 4.74218C24.9509 4.79281 25.0465 4.81531 25.1365 4.81531C25.3278 4.81531 25.5078 4.71968 25.609 4.5453L26.5147 2.97593C26.6665 2.71718 26.5765 2.37968 26.3122 2.23343C26.0534 2.08155 25.7159 2.17155 25.5697 2.43593L24.6697 3.99406C24.5178 4.25843 24.6078 4.59031 24.8665 4.74218Z" fill="#2F5951"/>
<path d="M18.4208 23.6873C17.4533 23.6873 16.6602 24.4748 16.6602 25.4479C16.6602 26.4154 17.4477 27.2085 18.4208 27.2085C19.3883 27.2085 20.1814 26.421 20.1814 25.4479C20.1814 24.4748 19.3939 23.6873 18.4208 23.6873ZM18.4208 26.1173C18.0495 26.1173 17.7514 25.8191 17.7514 25.4479C17.7514 25.0766 18.0495 24.7785 18.4208 24.7785C18.792 24.7785 19.0902 25.0766 19.0902 25.4479C19.0902 25.8191 18.792 26.1173 18.4208 26.1173Z" fill="#2F5951"/>
<path d="M19.9571 9.1748H16.8859C16.7396 9.1748 16.5934 9.23668 16.4921 9.34356C16.3909 9.45043 16.3346 9.59668 16.3402 9.74293L16.7734 21.7636C16.7846 22.0561 17.0265 22.2923 17.319 22.2923H19.5296C19.8221 22.2923 20.064 22.0617 20.0752 21.7636L20.5084 9.74293C20.514 9.59668 20.4577 9.45043 20.3565 9.34356C20.2496 9.23106 20.109 9.1748 19.9571 9.1748ZM19.0009 21.1954H17.8421L17.4484 10.2661H19.389L19.0009 21.1954Z" fill="#2F5951"/>
</g>
</g>
<defs>
<clipPath id="clip0_2030_9886">
<rect width="36" height="36" fill="white" transform="translate(0 0.000366211)"/>
</clipPath>
<clipPath id="clip1_2030_9886">
<rect width="36" height="36" fill="white" transform="translate(0 0.000366211)"/>
</clipPath>
</defs>
</svg>
