<svg width="45" height="44" viewBox="0 0 45 44" fill="none" xmlns="http://www.w3.org/2000/svg">
<path d="M42.6601 6.1613C42.0642 4.28712 41.2565 2.94519 41.2223 2.88879C41.0899 2.67051 40.8172 2.55696 40.5702 2.61361C40.5062 2.62821 38.981 2.98421 37.2217 3.86289C34.8465 5.04873 33.1873 6.63186 32.4229 8.44032C31.7867 9.94641 31.6953 11.7876 32.1467 13.8217C31.1852 12.7479 30.1036 11.8085 28.9246 11.0177C28.5645 10.3064 27.6126 8.55538 26.1244 6.72527C25.6342 6.12278 24.6913 6.87884 25.1865 7.48737C26.1893 8.72079 26.9441 9.93382 27.4162 10.7672L21.9118 9.69414L16.682 2.56074C17.1898 2.56778 17.6994 2.61688 18.2065 2.71633C19.814 3.03104 21.4019 3.8498 22.9269 5.14944C23.5244 5.65877 24.3003 4.73175 23.7107 4.22947C22.0261 2.79387 20.2523 1.88549 18.4386 1.53024C15.6699 0.988431 12.4407 1.69968 9.09918 3.58796C6.60867 4.99535 4.94321 6.54122 4.87373 6.60618C4.65091 6.81439 4.61541 7.19255 4.80197 7.43576C5.04619 7.93678 5.9717 9.74424 7.51228 11.6902C8.42041 12.8375 9.37815 13.8194 10.3689 14.6263C10.0874 14.8622 9.81346 15.109 9.54834 15.3685C8.13239 16.7535 7.04826 18.3873 6.33651 20.1733C5.70734 21.7514 5.36896 23.4491 5.35007 25.1989C5.31886 28.0603 6.14793 30.8199 7.74819 33.18C9.31143 35.4852 11.4968 37.2552 14.0679 38.2982C14.7874 38.5895 15.2424 37.4704 14.5223 37.1784C13.5908 36.8005 12.7156 36.3163 11.9084 35.7405C12.0117 35.168 12.2511 33.1075 10.8825 30.9745C10.6909 30.6762 11.2637 29.5044 11.6056 28.8045C11.9585 28.0832 12.3228 27.3374 12.493 26.6352C12.6738 25.8893 12.4704 25.2631 11.9052 24.8238C11.4902 24.5012 10.9472 24.3343 10.4686 24.187C10.1576 24.0914 9.80515 23.9831 9.67926 23.8781C9.41994 23.6608 8.99646 22.8579 8.65607 22.2132C8.27841 21.4979 7.91889 20.8171 7.5518 20.3979C8.37786 18.4361 9.70469 16.7001 11.3664 15.3721C12.8843 16.4061 14.6167 17.1196 16.4582 17.2641C14.3227 18.9187 13.6318 21.0319 14.6192 23.0616C15.7724 25.4318 18.1458 25.0531 20.2398 24.7195C20.6021 24.6616 20.9769 24.602 21.336 24.5571C21.4707 24.5403 21.5112 24.577 21.5384 24.6009C21.9969 25.0088 21.9833 26.9568 21.9734 28.3793C21.9601 30.3468 21.9475 32.2054 22.6804 33.1596C23.0543 33.646 23.5807 33.8948 24.1978 33.8948C24.5677 33.8948 24.9695 33.8057 25.391 33.6249C27.2135 32.8444 29.1081 30.4954 28.8191 28.6368C28.5666 27.0119 28.3994 25.9383 28.7934 25.073C29.1577 24.2721 30.0384 23.5307 31.7728 22.5845C31.9806 23.5198 32.0853 24.4929 32.0745 25.4912C32.0375 28.8987 30.6754 32.0878 28.2395 34.4708C25.5171 37.1341 21.691 38.4493 17.9061 38.0321C17.1349 37.9485 17.0017 39.1485 17.7739 39.2336C21.9168 39.6898 26.1055 38.2497 29.0844 35.3349C31.7514 32.7258 33.2424 29.2348 33.283 25.504C33.3368 20.5575 30.7987 16.1752 26.9351 13.6507C27.7334 13.0815 28.3281 12.5892 28.6579 12.3035C30.0666 13.3141 31.3161 14.5591 32.3557 16.0095C34.8512 19.4923 35.841 23.7379 35.143 27.9651C33.7017 36.6912 25.4303 42.6186 16.7026 41.1767C12.4752 40.4786 8.77289 38.1764 6.27734 34.6937C3.78155 31.2112 2.79184 26.9651 3.49 22.7381C3.61538 21.9775 2.42375 21.7778 2.29787 22.5412C1.54683 27.0869 2.61157 31.6528 5.29469 35.3979C7.9783 39.1424 11.96 41.6183 16.5058 42.3694C17.4564 42.5262 18.4081 42.6038 19.3533 42.6038C22.9259 42.6038 26.4013 41.4945 29.3629 39.3723C33.1085 36.6887 35.5846 32.7077 36.3352 28.162C36.8853 24.8311 36.4595 21.4893 35.1373 18.4676C35.7475 18.2876 36.7861 17.9381 37.9236 17.3701C40.2983 16.1843 41.9577 14.6011 42.7218 12.7927C43.4867 10.9837 43.4653 8.69058 42.6601 6.1613ZM7.58705 22.7771C8.03671 23.6296 8.46195 24.4353 8.90381 24.8049C9.21676 25.0665 9.65232 25.2004 10.1133 25.3422C11.2944 25.7052 11.4316 25.8835 11.3183 26.3505C11.1793 26.9248 10.844 27.6106 10.5199 28.2735C9.89578 29.5505 9.30639 30.756 9.86507 31.6271C10.6574 32.8618 10.7931 34.0773 10.7795 34.8334C7.18019 31.5878 5.71464 26.4615 7.05531 21.8023C7.23306 22.1069 7.41988 22.4609 7.58705 22.7771ZM36.8239 10.9019L35.1065 6.74012C35.9422 5.95862 36.9117 5.37049 37.7375 4.95633C38.441 4.60335 39.1102 4.33949 39.647 4.15243L36.8239 10.9019ZM40.761 4.62097C41.001 5.1366 41.2792 5.80152 41.5169 6.55305C41.7774 7.37785 42.0166 8.40004 42.0642 9.46629L38.0397 11.1267L40.761 4.62097ZM33.536 8.91088C33.7142 8.48942 33.9446 8.09867 34.2107 7.73788L36.1657 12.4749L34.4114 16.6699C34.1649 16.147 33.8746 15.4602 33.6284 14.6799C33.1342 13.1177 32.7172 10.8483 33.536 8.91088ZM37.4075 16.2767C36.7305 16.6166 36.0844 16.8739 35.5582 17.0594L37.3788 12.7071L42.0128 10.7949C41.9456 11.314 41.8175 11.8286 41.6088 12.3221C40.7902 14.2595 38.8723 15.5423 37.4075 16.2767ZM15.6175 15.9328C15.404 15.891 15.1933 15.8398 14.9856 15.7817L21.6736 10.8792L27.1806 11.9525C25.1745 13.5331 20.2924 16.8487 15.6175 15.9328ZM9.50529 12.1519C8.07498 10.6103 7.02661 8.96199 6.42463 7.90657L13.4327 9.27293L9.50529 12.1519ZM10.743 4.08948L13.6751 8.08885L6.62177 6.71394C7.50976 6.01276 8.97556 4.9601 10.743 4.08948ZM15.4234 8.42975L11.8687 3.58091C12.9329 3.14358 14.0752 2.79941 15.2462 2.64634L20.1637 9.35349L15.4234 8.42975ZM15.0473 9.58764L20.0592 10.5645L13.6268 15.2794C12.4137 14.7192 11.3221 13.9138 10.3668 13.0185L15.0473 9.58764ZM31.4445 21.3881C29.266 22.5488 28.1992 23.4604 27.6932 24.5725C27.1496 25.7666 27.3487 27.0484 27.6244 28.8224C27.7873 29.8685 26.5441 31.8164 24.9151 32.5141C24.3124 32.7721 23.8831 32.7417 23.6387 32.4232C23.1585 31.7983 23.1716 29.907 23.1819 28.3876C23.1963 26.2853 23.2089 24.4698 22.3415 23.6981C22.0296 23.4206 21.6305 23.3033 21.1872 23.3577C20.8072 23.405 20.4218 23.4665 20.0494 23.5259C17.8281 23.8799 16.4302 24.0216 15.7061 22.5329C14.5329 20.1217 16.9078 18.3356 17.9834 17.6798C18.2024 17.5463 18.4056 17.389 18.5944 17.2138C21.194 16.9031 23.6502 15.7877 25.8391 14.3907C28.4636 15.9587 30.4782 18.4401 31.4445 21.3881Z" fill="#2F5951"/>
</svg>
