<svg width="44" height="44" viewBox="0 0 44 44" fill="none" xmlns="http://www.w3.org/2000/svg">
<g clip-path="url(#clip0_1730_2668)">
<path d="M41.0667 14.6672H35.2V3.66716C35.1988 2.69505 34.8122 1.7631 34.1248 1.07572C33.4374 0.388335 32.5054 0.00165271 31.5333 0.000488281L12.4667 0.000488281C11.4946 0.00165271 10.5626 0.388335 9.87523 1.07572C9.18785 1.7631 8.80116 2.69505 8.8 3.66716V5.86716H2.93333C2.15536 5.86716 1.40926 6.1762 0.859154 6.72631C0.309047 7.27641 0 8.02252 0 8.80049L0 22.0005C0 22.7785 0.309047 23.5246 0.859154 24.0747C1.40926 24.6248 2.15536 24.9338 2.93333 24.9338H4.4V27.5298C4.39875 27.8625 4.48983 28.1891 4.66311 28.4731C4.8364 28.7571 5.08508 28.9875 5.38151 29.1386C5.67793 29.2897 6.01046 29.3556 6.34211 29.3289C6.67375 29.3023 6.9915 29.1842 7.26 28.9877L8.8 27.8672V40.3338C8.80116 41.3059 9.18785 42.2379 9.87523 42.9253C10.5626 43.6126 11.4946 43.9993 12.4667 44.0005H31.5333C32.5054 43.9993 33.4374 43.6126 34.1248 42.9253C34.8122 42.2379 35.1988 41.3059 35.2 40.3338V33.7338H41.0667C41.8446 33.7338 42.5907 33.4248 43.1408 32.8747C43.691 32.3246 44 31.5785 44 30.8005V17.6005C44 16.8225 43.691 16.0764 43.1408 15.5263C42.5907 14.9762 41.8446 14.6672 41.0667 14.6672ZM17.6 1.46715H26.4V2.20049C26.4 2.39498 26.3227 2.58151 26.1852 2.71903C26.0477 2.85656 25.8612 2.93382 25.6667 2.93382H18.3333C18.1388 2.93382 17.9523 2.85656 17.8148 2.71903C17.6773 2.58151 17.6 2.39498 17.6 2.20049V1.46715ZM10.2667 3.66716C10.2667 3.08368 10.4985 2.5241 10.911 2.11152C11.3236 1.69894 11.8832 1.46715 12.4667 1.46715H16.1333V2.20049C16.1333 2.78396 16.3651 3.34354 16.7777 3.75612C17.1903 4.1687 17.7499 4.40049 18.3333 4.40049H25.6667C26.2501 4.40049 26.8097 4.1687 27.2223 3.75612C27.6349 3.34354 27.8667 2.78396 27.8667 2.20049V1.46715H31.5333C32.1168 1.46715 32.6764 1.69894 33.089 2.11152C33.5015 2.5241 33.7333 3.08368 33.7333 3.66716V14.6672H23.4667V8.80049C23.4667 8.02252 23.1576 7.27641 22.6075 6.72631C22.0574 6.1762 21.3113 5.86716 20.5333 5.86716H10.2667V3.66716ZM6.3954 27.8026C6.34656 27.8396 6.28813 27.8618 6.22704 27.8667C6.16595 27.8715 6.10477 27.8587 6.05073 27.8298C5.99477 27.8024 5.94775 27.7596 5.91515 27.7065C5.88256 27.6534 5.86575 27.5921 5.86667 27.5298V24.2005C5.86667 24.006 5.7894 23.8195 5.65188 23.6819C5.51435 23.5444 5.32783 23.4672 5.13333 23.4672H2.93333C2.54435 23.4672 2.1713 23.3126 1.89624 23.0376C1.62119 22.7625 1.46667 22.3895 1.46667 22.0005V8.80049C1.46667 8.4115 1.62119 8.03845 1.89624 7.7634C2.1713 7.48835 2.54435 7.33382 2.93333 7.33382H20.5333C20.9223 7.33382 21.2954 7.48835 21.5704 7.7634C21.8455 8.03845 22 8.4115 22 8.80049V15.0749C21.5556 15.3304 21.1862 15.6982 20.9287 16.1414C20.6713 16.5847 20.535 17.0879 20.5333 17.6005V23.4672H12.5913C12.4362 23.467 12.2849 23.516 12.1594 23.6072L6.3954 27.8026ZM33.7333 40.3338C33.7333 40.9173 33.5015 41.4769 33.089 41.8895C32.6764 42.302 32.1168 42.5338 31.5333 42.5338H12.4667C11.8832 42.5338 11.3236 42.302 10.911 41.8895C10.4985 41.4769 10.2667 40.9173 10.2667 40.3338V26.7994L12.8333 24.9338H20.5333V30.8005C20.5333 31.5785 20.8424 32.3246 21.3925 32.8747C21.9426 33.4248 22.6887 33.7338 23.4667 33.7338H24.9333V36.3291C24.9322 36.6618 25.0234 36.9882 25.1966 37.2722C25.3699 37.5561 25.6186 37.7865 25.9149 37.9376C26.2113 38.0888 26.5437 38.1548 26.8753 38.1283C27.2069 38.1018 27.5247 37.9839 27.7933 37.7877L33.3667 33.7338H33.7333V40.3338ZM42.5333 30.8005C42.5333 31.1895 42.3788 31.5625 42.1038 31.8376C41.8287 32.1126 41.4557 32.2672 41.0667 32.2672H33.1247C32.9695 32.267 32.8183 32.316 32.6927 32.4072L26.9287 36.6019C26.88 36.6392 26.8216 36.6617 26.7604 36.6665C26.6993 36.6713 26.638 36.6583 26.5841 36.629C26.5282 36.6016 26.4812 36.5588 26.4486 36.5057C26.416 36.4526 26.3992 36.3914 26.4 36.3291V33.0005C26.4 32.806 26.3227 32.6195 26.1852 32.4819C26.0477 32.3444 25.8612 32.2672 25.6667 32.2672H23.4667C23.0777 32.2672 22.7046 32.1126 22.4296 31.8376C22.1545 31.5625 22 31.1895 22 30.8005V17.6005C22 17.2115 22.1545 16.8385 22.4296 16.5634C22.7046 16.2883 23.0777 16.1338 23.4667 16.1338H41.0667C41.4557 16.1338 41.8287 16.2883 42.1038 16.5634C42.3788 16.8385 42.5333 17.2115 42.5333 17.6005V30.8005Z" fill="#2F5951"/>
<path d="M36.6667 22.0001H36.4064C36.6594 21.2704 36.7992 20.5062 36.8207 19.7341C36.822 19.4059 36.7467 19.0818 36.6008 18.7877C36.4549 18.4937 36.2425 18.2377 35.9803 18.0401C35.6891 17.8167 35.3458 17.6712 34.9828 17.6172C34.6197 17.5633 34.249 17.6027 33.9054 17.7318C33.5618 17.8608 33.2568 18.0753 33.0191 18.355C32.7814 18.6346 32.6189 18.9702 32.5468 19.3301C32.3372 20.3184 31.8797 21.2373 31.2173 22.0001H30.5961C30.4684 21.7779 30.2845 21.5932 30.0629 21.4645C29.8413 21.3357 29.5897 21.2676 29.3333 21.2668H26.4C26.011 21.2668 25.638 21.4213 25.3629 21.6964C25.0879 21.9714 24.9333 22.3445 24.9333 22.7335V28.6001C24.9333 28.9891 25.0879 29.3622 25.3629 29.6372C25.638 29.9123 26.011 30.0668 26.4 30.0668H29.3333C29.7079 30.066 30.0678 29.9213 30.3387 29.6627L31.2921 30.2978C31.7823 30.6263 32.3593 30.8011 32.9494 30.8001H36.6667C37.4447 30.8001 38.1908 30.4911 38.7409 29.941C39.291 29.3909 39.6 28.6448 39.6 27.8668V24.9335C39.6 24.1555 39.291 23.4094 38.7409 22.8593C38.1908 22.3092 37.4447 22.0001 36.6667 22.0001ZM26.4 28.6001V22.7335H29.3333V28.6001H26.4ZM38.1334 27.8668C38.1334 28.2558 37.9788 28.6288 37.7038 28.9039C37.4287 29.1789 37.0557 29.3335 36.6667 29.3335H32.9494C32.6489 29.334 32.355 29.2449 32.1053 29.0775L30.8 28.2078V23.4668H31.5333C31.7278 23.4668 31.9143 23.3895 32.0518 23.2519C33.0231 22.26 33.6914 21.0117 33.9783 19.6535C33.9964 19.5336 34.0455 19.4206 34.1208 19.3257C34.1961 19.2307 34.2949 19.1571 34.4075 19.1122C34.52 19.0672 34.6424 19.0525 34.7624 19.0695C34.8824 19.0865 34.9958 19.1346 35.0915 19.2091C35.1761 19.2742 35.244 19.3585 35.2897 19.455C35.3353 19.5515 35.3574 19.6575 35.354 19.7642C35.3141 20.6854 35.0725 21.5866 34.6463 22.4042C34.5901 22.5161 34.5635 22.6405 34.569 22.7656C34.5745 22.8907 34.6119 23.0123 34.6777 23.1188C34.7435 23.2254 34.8355 23.3133 34.9449 23.3742C35.0543 23.4351 35.1775 23.467 35.3027 23.4668H36.6667C37.0557 23.4668 37.4287 23.6213 37.7038 23.8964C37.9788 24.1714 38.1334 24.5445 38.1334 24.9335V27.8668Z" fill="#2F5951"/>
<path d="M18.3334 13.732C18.37 12.6587 17.9802 11.6144 17.2491 10.8277C16.5181 10.041 15.5052 9.57571 14.432 9.53369C13.9269 9.53465 13.4273 9.63817 12.9634 9.83797C12.4995 10.0378 12.0811 10.3297 11.7334 10.696C11.3856 10.3297 10.9672 10.0378 10.5033 9.83797C10.0394 9.63817 9.53977 9.53465 9.03469 9.53369C7.96152 9.57571 6.94866 10.041 6.21757 10.8277C5.48649 11.6144 5.09667 12.6587 5.13336 13.732C5.13336 18.6659 11.2061 21.1145 11.465 21.2164C11.6375 21.2839 11.8292 21.2839 12.0018 21.2164C12.2606 21.1145 18.3334 18.6659 18.3334 13.732ZM11.7334 19.7344C10.6407 19.2357 6.60002 17.1611 6.60002 13.732C6.56371 13.0477 6.79917 12.3767 7.25514 11.8651C7.71111 11.3535 8.35069 11.0427 9.03469 11.0004C9.46087 11.009 9.87692 11.1319 10.2394 11.3562C10.6019 11.5806 10.8975 11.8981 11.0954 12.2756C11.1647 12.3815 11.2594 12.4685 11.3708 12.5287C11.4821 12.5889 11.6067 12.6204 11.7334 12.6204C11.86 12.6204 11.9846 12.5889 12.096 12.5287C12.2073 12.4685 12.302 12.3815 12.3714 12.2756C12.5692 11.8981 12.8648 11.5806 13.2273 11.3562C13.5898 11.1319 14.0058 11.009 14.432 11.0004C15.116 11.0427 15.7556 11.3535 16.2116 11.8651C16.6675 12.3767 16.903 13.0477 16.8667 13.732C16.8667 17.1508 12.8246 19.2342 11.7334 19.7344Z" fill="#2F5951"/>
<path d="M27.1334 39.6006H16.8667C16.6722 39.6006 16.4857 39.6778 16.3481 39.8154C16.2106 39.9529 16.1334 40.1394 16.1334 40.3339C16.1334 40.5284 16.2106 40.7149 16.3481 40.8525C16.4857 40.99 16.6722 41.0673 16.8667 41.0673H27.1334C27.3279 41.0673 27.5144 40.99 27.6519 40.8525C27.7894 40.7149 27.8667 40.5284 27.8667 40.3339C27.8667 40.1394 27.7894 39.9529 27.6519 39.8154C27.5144 39.6778 27.3279 39.6006 27.1334 39.6006Z" fill="#2F5951"/>
</g>
<defs>
<clipPath id="clip0_1730_2668">
<rect width="44" height="44" fill="white" transform="translate(0 0.000488281)"/>
</clipPath>
</defs>
</svg>
