<svg width="32" height="32" viewBox="0 0 32 32" fill="none" xmlns="http://www.w3.org/2000/svg">
<g clip-path="url(#clip0_1859_19993)">
<path d="M16 31.96C7.31519 31.96 0.25 24.8948 0.25 16.21C0.25 7.52515 7.31519 0.459961 16 0.459961C24.6848 0.459961 31.75 7.52515 31.75 16.21C31.75 16.9817 31.6922 17.7758 31.5728 18.6355C31.5243 18.9938 31.1961 19.2458 30.8339 19.1959C30.4756 19.146 30.2236 18.8153 30.2734 18.457C30.3837 17.6563 30.4375 16.9213 30.4375 16.21C30.4375 8.24965 23.9603 1.77246 16 1.77246C8.03969 1.77246 1.5625 8.24965 1.5625 16.21C1.5625 24.1703 8.03969 30.6475 16 30.6475C16.6786 30.6475 17.5579 30.5831 18.2418 30.4834C18.6001 30.427 18.9321 30.679 18.9846 31.0386C19.0371 31.3969 18.7891 31.7303 18.4294 31.7815C17.6905 31.8904 16.7363 31.96 16 31.96Z" fill="#2F5951"/>
<path d="M16 31.96L15.6325 31.9468C12.8986 31.6594 10.5256 28.7798 9.21306 24.2398C8.503 21.859 8.125 19.0804 8.125 16.21C8.125 13.3763 8.50169 10.6069 9.21437 8.17615C10.5256 3.63884 12.8999 0.759211 15.5629 0.475711L16 0.459961L16.3675 0.473086C19.1014 0.760523 21.4744 3.64015 22.7869 8.18009C23.4721 10.498 23.8501 13.1925 23.8763 15.9685V16.185C23.8763 16.5473 23.5823 16.8413 23.2201 16.8413C22.8578 16.8413 22.5638 16.5473 22.5638 16.185V15.975C22.5389 13.3251 22.1806 10.7552 21.5269 8.5489C20.3851 4.59565 18.3822 2.00477 16.2992 1.78296L16 1.77246L15.6325 1.78559C13.6191 2.00346 11.6149 4.59434 10.4744 8.54365C9.79581 10.8576 9.4375 13.4996 9.4375 16.1837C9.4375 18.9544 9.79581 21.6043 10.4731 23.871C11.6163 27.8256 13.6191 30.4165 15.7021 30.6383L16 30.6475L16.3938 30.6343C16.8216 30.574 17.3073 30.3876 17.7955 30.0713C18.205 29.8035 18.8153 30.1316 18.8153 30.6212C18.8153 30.8863 18.6618 31.1147 18.4373 31.2184C17.8034 31.6187 17.1616 31.855 16.4764 31.9429L16 31.96Z" fill="#2F5951"/>
<path d="M4.50374 26.6312C4.27405 26.6312 4.05224 26.5118 3.93149 26.2978C3.75299 25.9815 3.86455 25.5825 4.18087 25.404C5.71387 24.5391 7.62618 23.8526 9.71043 23.4169C11.6162 23.0021 13.6532 22.7856 15.7597 22.7725H15.9999C16.3622 22.7725 16.6562 23.0665 16.6562 23.4287C16.6562 23.791 16.3622 24.085 15.9999 24.085H15.7637C13.7516 24.0968 11.8052 24.3041 9.98343 24.7005C8.02387 25.11 6.24149 25.7479 4.8253 26.5472C4.72293 26.6036 4.61268 26.6312 4.50374 26.6312Z" fill="#2F5951"/>
<path d="M16.0001 9.64792C11.4378 9.64792 7.13018 8.68849 4.17968 7.01636C3.86468 6.83786 3.75312 6.43755 3.93293 6.12124C4.11274 5.80624 4.51043 5.69599 4.82806 5.87449C7.58562 7.43767 11.6583 8.33542 16.0001 8.33542C20.3418 8.33542 24.4145 7.43767 27.1734 5.87449C27.4897 5.69599 27.8887 5.80755 28.0685 6.12124C28.247 6.43624 28.1367 6.83655 27.8217 7.01636C24.8699 8.68849 20.5623 9.64792 16.0001 9.64792Z" fill="#2F5951"/>
<path d="M16 31.9084C15.6377 31.9084 15.3438 31.6144 15.3438 31.2522V22.0791C15.3438 21.7169 15.6377 21.4229 16 21.4229C16.3622 21.4229 16.6562 21.7169 16.6562 22.0791V31.2522C16.6562 31.6144 16.3622 31.9084 16 31.9084Z" fill="#2F5951"/>
<path d="M16 16.84C15.6377 16.84 15.3438 16.546 15.3438 16.1837V1.11621C15.3438 0.753961 15.6377 0.459961 16 0.459961C16.3622 0.459961 16.6562 0.753961 16.6562 1.11621V16.1837C16.6562 16.546 16.3622 16.84 16 16.84Z" fill="#2F5951"/>
<path d="M16 16.8398H0.932495C0.570245 16.8398 0.276245 16.5458 0.276245 16.1836C0.276245 15.8213 0.570245 15.5273 0.932495 15.5273H16C16.3622 15.5273 16.6562 15.8213 16.6562 16.1836C16.6562 16.5458 16.3622 16.8398 16 16.8398Z" fill="#2F5951"/>
<path d="M31.0675 16.8398H21.25C20.8877 16.8398 20.5938 16.5458 20.5938 16.1836C20.5938 15.8213 20.8877 15.5273 21.25 15.5273H31.0675C31.4297 15.5273 31.7237 15.8213 31.7237 16.1836C31.7237 16.5458 31.4297 16.8398 31.0675 16.8398Z" fill="#2F5951"/>
<path d="M22.4431 31.6629C22.4378 31.6629 22.4339 31.6629 22.4286 31.6629C22.1517 31.6564 21.9089 31.4766 21.8209 31.2141L17.6446 18.6849C17.5658 18.4487 17.6275 18.1888 17.8034 18.0129C17.9792 17.8371 18.2404 17.7741 18.4754 17.8541L31.0045 22.0305C31.267 22.1171 31.4468 22.3612 31.4534 22.6382C31.4599 22.9151 31.2906 23.1658 31.0334 23.2656L25.2728 25.4811L23.0573 31.2416C22.9576 31.4962 22.7147 31.6629 22.4431 31.6629ZM19.3049 19.5157L22.4877 29.0642L24.1506 24.7395C24.2176 24.5662 24.3541 24.4297 24.5273 24.3628L28.852 22.6999L19.3049 19.5157Z" fill="#2F5951"/>
</g>
<defs>
<clipPath id="clip0_1859_19993">
<rect width="31.5" height="31.5" fill="white" transform="translate(0.25 0.459961)"/>
</clipPath>
</defs>
</svg>
