<svg width="44" height="44" viewBox="0 0 44 44" fill="none" xmlns="http://www.w3.org/2000/svg">
<g clip-path="url(#clip0_1657_19743)">
<path d="M5.54718 18.1386C5.54718 21.3101 8.12737 23.8903 11.299 23.8903C14.4706 23.8903 17.0507 21.3102 17.0507 18.1386C17.0507 14.9671 14.4705 12.3868 11.299 12.3868C8.12745 12.3868 5.54718 14.967 5.54718 18.1386ZM15.8475 18.1386C15.8475 20.6468 13.807 22.6872 11.2989 22.6872C8.7908 22.6872 6.75022 20.6468 6.75022 18.1386C6.75022 15.6305 8.79072 13.59 11.2989 13.59C13.8071 13.59 15.8475 15.6305 15.8475 18.1386ZM25.7055 19.7103C22.0717 19.7103 19.1152 22.6667 19.1152 26.3006C19.1152 29.9346 22.0716 32.891 25.7055 32.891C29.3395 32.891 32.2958 29.9346 32.2958 26.3006C32.2958 22.6667 29.3395 19.7103 25.7055 19.7103ZM25.7055 31.6878C22.735 31.6878 20.3183 29.2712 20.3183 26.3006C20.3183 23.33 22.7349 20.9133 25.7055 20.9133C28.6761 20.9133 31.0927 23.33 31.0927 26.3006C31.0927 29.2712 28.6761 31.6878 25.7055 31.6878ZM9.56201 15.1429C9.37587 15.2504 9.26123 15.449 9.26123 15.6638V20.6135C9.26123 20.8284 9.37587 21.027 9.56201 21.1344C9.65508 21.1881 9.75889 21.215 9.86279 21.215C9.96669 21.215 10.0705 21.1882 10.1636 21.1344L14.4501 18.6596C14.6363 18.5521 14.7509 18.3535 14.7509 18.1386C14.7509 17.9238 14.6363 17.7251 14.4501 17.6177L10.1636 15.1429C9.97743 15.0354 9.74815 15.0355 9.56201 15.1429ZM10.4644 16.7058L12.9462 18.1387L10.4644 19.5716V16.7058ZM17.3904 9.09604C17.3904 8.7638 17.6597 8.49447 17.992 8.49447H25.4044C25.7366 8.49447 26.006 8.7638 26.006 9.09604C26.006 9.42827 25.7366 9.6976 25.4044 9.6976H17.992C17.6597 9.6976 17.3904 9.42827 17.3904 9.09604ZM22.0325 3.5064C22.0325 3.17417 22.3018 2.90484 22.634 2.90484H25.4044C25.7366 2.90484 26.006 3.17417 26.006 3.5064C26.006 3.83864 25.7366 4.10797 25.4044 4.10797H22.634C22.3018 4.10797 22.0325 3.83864 22.0325 3.5064ZM17.3904 3.5064C17.3904 3.17417 17.6597 2.90484 17.992 2.90484H20.4156C20.7478 2.90484 21.0171 3.17417 21.0171 3.5064C21.0171 3.83864 20.7478 4.10797 20.4156 4.10797H17.992C17.6597 4.10797 17.3904 3.83864 17.3904 3.5064ZM17.3904 6.30118C17.3904 5.96894 17.6597 5.69962 17.992 5.69962H25.4044C25.7366 5.69962 26.006 5.96894 26.006 6.30118C26.006 6.63341 25.7366 6.90274 25.4044 6.90274H17.992C17.6597 6.90274 17.3904 6.63341 17.3904 6.30118ZM43.6562 16.1906C43.6562 15.2511 43.2926 14.3698 42.632 13.7095C42.5295 13.607 42.4212 13.5125 42.3086 13.4245V9.21076C42.3086 8.08275 41.3909 7.16502 40.2628 7.16502H29.1947V2.38501C29.1947 1.25287 28.2736 0.331787 27.1415 0.331787H16.2546C15.1226 0.331787 14.2015 1.25287 14.2015 2.38501V7.16511H2.38949C1.26148 7.16511 0.34375 8.08292 0.34375 9.21093V34.8471C0.34375 35.9751 1.26148 36.8929 2.38949 36.8929H17.5643V39.5279H14.89C13.2547 39.5279 11.9243 40.8583 11.9243 42.4937V43.0675C11.9243 43.3997 12.1936 43.669 12.5258 43.669H30.1265C30.4587 43.669 30.7281 43.3997 30.7281 43.0675V42.4937C30.7281 40.8584 29.3976 39.5279 27.7622 39.5279H25.088V36.8929H32.8708L36.5521 40.5743C37.0084 41.0306 37.6169 41.2818 38.2656 41.2818C38.9142 41.2818 39.5228 41.0305 39.979 40.5743C40.4353 40.118 40.6866 39.5095 40.6866 38.8608C40.6866 38.2122 40.4352 37.6036 39.9791 37.1474L39.7245 36.8929H40.2628C41.3909 36.8929 42.3086 35.9751 42.3086 34.8471V18.9953L42.632 18.6718C43.2926 18.0113 43.6563 17.1302 43.6562 16.1906ZM40.2629 8.36823C40.7275 8.36823 41.1055 8.74618 41.1055 9.21085V12.8162C40.7989 12.7305 40.4786 12.6853 40.1509 12.6853C40.0469 12.6853 39.9437 12.6905 39.8412 12.6993V10.2341C39.8412 9.90187 39.5719 9.63254 39.2397 9.63254H29.1948V8.36823H40.2629ZM15.4047 2.38501C15.4047 1.9163 15.786 1.53491 16.2547 1.53491H27.1416C27.6103 1.53491 27.9916 1.9163 27.9916 2.38501V10.2174C27.9916 10.6861 27.6103 11.0675 27.1416 11.0675H20.7766C20.603 11.0675 20.4379 11.1425 20.3236 11.2733L18.3381 13.5447V11.6692C18.3381 11.3369 18.0688 11.0676 17.7366 11.0676H16.2547C15.786 11.0676 15.4047 10.6862 15.4047 10.2175V2.38501ZM16.2547 12.2706H17.135V15.1467C17.135 15.3974 17.2905 15.6218 17.5251 15.7099C17.5941 15.7358 17.6656 15.7483 17.7364 15.7483C17.9066 15.7483 18.073 15.6758 18.1894 15.5426L21.0496 12.2706H27.1415C28.0582 12.2706 28.8364 11.6665 29.0994 10.8357H38.638V13.0244C38.2827 13.1936 37.9554 13.4237 37.6696 13.7095L37.4626 13.9165L37.2556 13.7096C36.5951 13.049 35.714 12.6853 34.7744 12.6853C33.8347 12.6853 32.9536 13.049 32.2933 13.7096C31.6327 14.3701 31.269 15.2511 31.269 16.1908C31.269 17.1304 31.6327 18.0114 32.2932 18.6719L37.0373 23.416C37.15 23.5288 37.3031 23.5922 37.4626 23.5922C37.6221 23.5922 37.7751 23.5289 37.8879 23.416L38.638 22.6658V31.8768H34.4745C34.1776 31.7822 33.8573 31.7838 33.5611 31.8807C33.3494 31.6062 33.3243 31.2379 33.5066 30.9314C34.3373 29.5349 34.7763 27.9336 34.7763 26.3006C34.7763 21.299 30.7071 17.2298 25.7055 17.2298C20.7038 17.2298 16.6346 21.299 16.6346 26.3006C16.6346 28.4014 17.3526 30.3374 18.5559 31.8768H4.01431V10.8357H14.2969C14.5599 11.6666 15.338 12.2706 16.2547 12.2706ZM32.0151 33.2001C31.3521 32.688 30.4621 32.6271 29.7211 33.0677C28.5108 33.7877 27.1222 34.1683 25.7055 34.1683C21.3672 34.1683 17.8377 30.6388 17.8377 26.3006C17.8377 21.9623 21.3672 18.4328 25.7055 18.4328C30.0438 18.4328 33.5732 21.9623 33.5732 26.3006C33.5732 27.7171 33.1926 29.1057 32.4726 30.3163C32.032 31.057 32.0929 31.9471 32.6049 32.6103L32.015 33.2001H32.0151ZM29.5248 42.4658H13.1276C13.1424 41.5067 13.9274 40.7309 14.89 40.7309H27.7622C28.7249 40.7309 29.5099 41.5066 29.5248 42.4658ZM23.8849 39.5278H18.7675V36.8928H23.8849V39.5278ZM2.38949 35.6897C1.92491 35.6897 1.54688 35.3117 1.54688 34.847V9.21093C1.54688 8.74627 1.92483 8.36823 2.38949 8.36823H14.2016V9.63254H3.41275C3.08052 9.63254 2.81119 9.90187 2.81119 10.2341V32.4783C2.81119 32.8106 3.08052 33.0799 3.41275 33.0799H19.6859C21.2885 34.5046 23.3975 35.3715 25.7055 35.3715C27.3386 35.3715 28.94 34.9325 30.3363 34.1019C30.6428 33.9195 31.0111 33.9447 31.2856 34.1564C31.1175 34.6702 31.2359 35.2579 31.6435 35.6656L31.6677 35.6898H2.38949V35.6897ZM39.1284 39.7235C38.6525 40.1991 37.8787 40.1991 37.4028 39.7235L32.4942 34.8147C32.3861 34.7065 32.3861 34.5306 32.4942 34.4225L33.8276 33.0891C33.8817 33.035 33.9527 33.0081 34.0237 33.0081C34.0947 33.0081 34.1657 33.035 34.2197 33.0891L39.1284 37.9979C39.3574 38.227 39.4836 38.5332 39.4836 38.8606C39.4836 39.1879 39.3574 39.4943 39.1284 39.7234V39.7235ZM41.1055 34.847C41.1055 35.3116 40.7275 35.6897 40.2628 35.6897H38.5215L35.9117 33.0798H39.2396C39.5718 33.0798 39.8411 32.8105 39.8411 32.4783V21.4626L41.1055 20.1983V34.847ZM41.7814 17.8211L37.4626 22.1398L33.1439 17.8211C32.2449 16.922 32.2449 15.4592 33.1439 14.5601C33.5771 14.1269 34.1561 13.8883 34.7743 13.8883C35.3924 13.8883 35.9715 14.1269 36.4048 14.5602L37.0372 15.1924C37.272 15.4272 37.653 15.4272 37.8878 15.1924L38.5202 14.5601C38.9534 14.1269 39.5325 13.8883 40.1507 13.8883C40.7689 13.8883 41.3479 14.1269 41.7811 14.5601C42.2143 14.9933 42.453 15.5724 42.453 16.1906C42.453 16.8088 42.2144 17.3878 41.7812 17.8211H41.7814Z" fill="#2F5951"/>
</g>
<defs>
<clipPath id="clip0_1657_19743">
<rect width="44" height="44" fill="white" transform="translate(0 0.000244141)"/>
</clipPath>
</defs>
</svg>
