<svg width="48" height="48" viewBox="0 0 48 48" fill="none" xmlns="http://www.w3.org/2000/svg">
<g clip-path="url(#clip0_2030_9903)">
<path d="M25.612 18.8287C22.3242 15.2121 16.7898 14.993 13.228 18.2259C13.0637 18.3904 12.8446 18.5547 12.6801 18.7738L12.4609 19.1575L12.7349 19.4863L12.7898 19.5409C16.0227 23.1027 21.5571 23.3221 25.1189 20.0889C25.2832 19.9246 25.5023 19.7603 25.6668 19.5409L25.9408 19.1575L25.612 18.8287ZM18.0502 19.1575C18.0502 18.5547 18.5434 18.0616 19.1462 18.0616C19.7487 18.0616 20.2421 18.5547 20.2421 19.1575C20.2421 19.7603 19.7487 20.2534 19.1462 20.2534C18.5434 20.2534 18.0502 19.7603 18.0502 19.1575ZM18.4337 17.0751C17.2829 17.4588 16.6803 18.6644 17.0089 19.8149C17.2283 20.4726 17.7214 21.0205 18.4337 21.2396C16.7349 21.0754 15.091 20.3629 13.8308 19.1575C15.1459 17.9519 16.7349 17.2396 18.4337 17.0751ZM19.8584 21.2396C21.0092 20.8562 21.612 19.6506 21.2832 18.4998C21.064 17.8425 20.5706 17.2945 19.8584 17.0751C21.5571 17.2396 23.201 17.9519 24.4612 19.1575C23.1462 20.3629 21.5571 21.0754 19.8584 21.2396Z" fill="#2F5951"/>
<path d="M19.1474 9.84216C13.9963 9.84216 9.83203 14.0067 9.83203 19.1575C9.83203 24.3083 13.9963 28.4728 19.1474 28.4728C24.2981 28.4728 28.4627 24.3083 28.4627 19.1575C28.4627 14.0067 24.2981 9.84216 19.1474 9.84216ZM19.1474 27.3769C14.5991 27.3769 10.928 23.7055 10.928 19.1575C10.928 14.6093 14.5991 10.9381 19.1474 10.9381C23.6953 10.9381 27.3668 14.6093 27.3668 19.1575C27.3668 23.7055 23.6953 27.3769 19.1474 27.3769Z" fill="#2F5951"/>
<path d="M37.7771 31.2125V13.1298C37.7771 11.5954 36.5715 10.39 35.0373 10.39H29.0098V11.4859H35.0373C35.9687 11.4859 36.6812 12.1982 36.6812 13.1298V31.2125H37.7771Z" fill="#2F5951"/>
<path d="M10.3789 29.5688V35.0485C10.3789 36.5826 11.5843 37.7883 13.1187 37.7883H32.2973V36.6923H13.1187C12.1871 36.6923 11.4748 35.9798 11.4748 35.0485V29.5688H10.3789Z" fill="#2F5951"/>
<path d="M30.6543 13.1299H35.5859V14.2258H30.6543V13.1299Z" fill="#2F5951"/>
<path d="M31.75 15.8699H35.5857V16.9658H31.75V15.8699Z" fill="#2F5951"/>
<path d="M31.75 18.6095H35.5857V19.7054H31.75V18.6095Z" fill="#2F5951"/>
<path d="M31.75 21.3494H35.5857V22.4453H31.75V21.3494Z" fill="#2F5951"/>
<path d="M31.75 24.089H35.5857V25.1849H31.75V24.089Z" fill="#2F5951"/>
<path d="M32.2988 26.8289H35.5866V27.9248H32.2988V26.8289Z" fill="#2F5951"/>
<path d="M12.5703 31.7605H27.3652V32.8564H12.5703V31.7605Z" fill="#2F5951"/>
<path d="M12.5703 33.9524H29.5571V35.0483H12.5703V33.9524Z" fill="#2F5951"/>
<path d="M15.3125 23.5411H22.9839V24.6371H15.3125V23.5411Z" fill="#2F5951"/>
<path d="M15.3125 13.6777H22.9839V14.7737H15.3125V13.6777Z" fill="#2F5951"/>
<path d="M34.107 30.6097C33.7782 30.2809 33.3948 30.1166 32.9563 30.1166H32.5728L28.6274 25.6781C32.244 20.4176 30.9835 13.2393 25.7233 9.56809C20.4629 5.89665 13.2297 7.26655 9.61309 12.4722C5.99677 17.6778 7.25697 24.911 12.5174 28.5822C16.682 31.4865 22.271 31.322 26.2713 28.1439L30.107 32.4727V32.9113C30.107 33.3495 30.2713 33.7878 30.6001 34.0618L36.2989 39.7608C37.2851 40.747 38.8195 40.747 39.8058 39.7608C40.7922 38.7743 40.7922 37.2401 39.8058 36.2536L34.107 30.6097ZM8.73657 19.1574C8.73657 13.4038 13.3942 8.74615 19.1478 8.74615C24.9014 8.74615 29.5591 13.4038 29.5591 19.1574C29.5591 24.911 24.9014 29.5686 19.1478 29.5686C13.3942 29.5686 8.73657 24.911 8.73657 19.1574ZM27.0932 27.4862C27.3672 27.2122 27.6958 26.8837 27.9152 26.6097L31.5315 30.6646L30.655 31.4865L27.0932 27.4862ZM38.0524 39.4319C37.6688 39.4319 37.3399 39.2674 37.066 39.0482L31.3672 33.3495C31.2575 33.2398 31.2029 33.1304 31.2029 32.9658V32.5276L32.518 31.2125H32.9563C33.1208 31.2125 33.2302 31.2674 33.3399 31.3768L39.0387 37.0755C39.5866 37.6235 39.5866 38.5003 39.0387 39.0482C38.7647 39.2674 38.381 39.4319 38.0524 39.4319Z" fill="#2F5951"/>
</g>
<defs>
<clipPath id="clip0_2030_9903">
<rect width="33" height="33" fill="white" transform="translate(7.5 7.50037)"/>
</clipPath>
</defs>
</svg>
