<svg width="44" height="44" viewBox="0 0 44 44" fill="none" xmlns="http://www.w3.org/2000/svg">
<path d="M31.7118 24.3971C30.4124 23.31 28.7676 22.7943 27.0798 22.9456C23.5967 23.2575 21.016 26.3461 21.328 29.8309C21.4792 31.5187 22.2776 33.0475 23.5778 34.1338C24.7294 35.0972 26.1516 35.6111 27.6341 35.6111C27.8248 35.6111 28.0173 35.6025 28.2098 35.5853C31.6929 35.2733 34.2736 32.1847 33.9616 28.7C33.8104 27.0122 33.0112 25.4833 31.7118 24.3971ZM28.117 34.5575C26.7042 34.6838 25.3266 34.2524 24.2378 33.3423C23.149 32.4322 22.4804 31.1518 22.3541 29.7381C22.0937 26.8197 24.2541 24.2329 27.1709 23.9717C28.5837 23.8454 29.9613 24.2768 31.0501 25.1868C32.1389 26.0969 32.8075 27.3774 32.9338 28.7911C33.1951 31.7104 31.0337 34.2971 28.117 34.5575ZM42.6877 39.2024C42.5949 38.4908 42.2357 37.8798 41.6745 37.4828L35.4793 33.0957C36.1582 31.7121 36.4796 30.1317 36.3327 28.4877C36.1264 26.1837 35.0436 24.0972 33.2802 22.6044V8.11708H33.2793C33.2793 7.98302 33.2277 7.85153 33.1298 7.7527L27.1356 1.75513C27.0368 1.6563 26.9053 1.6056 26.7712 1.6056V1.60474H1.80469C1.52023 1.60474 1.28906 1.83591 1.28906 2.12036V41.0423C1.28906 41.3268 1.52023 41.5579 1.80469 41.5579H32.7654C33.0498 41.5579 33.281 41.3268 33.281 41.0423V36.9139L38.152 41.7006C38.6109 42.1518 39.2236 42.3967 39.8888 42.3958C39.9334 42.3958 39.9781 42.395 40.0237 42.3924C40.81 42.3537 41.5508 41.985 42.0552 41.3818C42.5588 40.7785 42.7891 39.9836 42.6877 39.2024ZM35.7328 34.5386L34.2014 36.3716L33.5242 35.7065C34.0768 35.2011 34.5623 34.6262 34.9697 33.9972L35.7328 34.5386ZM35.3057 28.5797C35.6838 32.8069 32.554 36.5529 28.3284 36.9311C26.2823 37.1141 24.2868 36.4885 22.7098 35.1702C21.1329 33.8519 20.1644 31.9982 19.9813 29.9504C19.6032 25.7231 22.733 21.9771 26.9586 21.599C27.1923 21.5783 27.4252 21.568 27.6573 21.568C29.4551 21.568 31.1807 22.1919 32.5772 23.3598C34.1541 24.6781 35.1227 26.5318 35.3057 28.5797ZM27.2869 3.3656L31.521 7.60231H27.2869V3.3656ZM2.32031 40.5267V2.63599H26.2556V8.11794C26.2556 8.40239 26.4868 8.63356 26.7712 8.63356H32.2498V21.8516C30.6505 20.8522 28.7788 20.401 26.8675 20.572C22.0765 21.0008 18.5273 25.2487 18.9552 30.0423C19.1623 32.3643 20.2615 34.4664 22.049 35.9617C23.6328 37.286 25.5888 37.9941 27.6289 37.9941C27.8919 37.9941 28.1557 37.9821 28.4212 37.9589C29.8272 37.8334 31.1266 37.3779 32.2498 36.6767V40.5275H2.32031V40.5267ZM41.2629 40.7209C40.9475 41.099 40.4645 41.3388 39.9721 41.3629C39.5467 41.3835 39.1566 41.2425 38.8738 40.965L34.9388 37.0978L36.5767 35.1367L41.079 38.325C41.4021 38.5536 41.6101 38.9128 41.6651 39.3356C41.7287 39.8254 41.5783 40.3428 41.2629 40.7209ZM7.79883 19.0036H26.8503C27.1348 19.0036 27.3659 18.7725 27.3659 18.488C27.3659 18.2036 27.1348 17.9724 26.8503 17.9724H25.5423V8.73669C25.5423 8.45224 25.3112 8.22106 25.0267 8.22106H22.4864V5.97981C22.4864 5.69536 22.2552 5.46419 21.9708 5.46419H18.9148C18.6304 5.46419 18.3992 5.69536 18.3992 5.97981V13.3034H16.3745V8.73669C16.3745 8.45224 16.1434 8.22106 15.8589 8.22106H12.803C12.5185 8.22106 12.2873 8.45224 12.2873 8.73669V11.0175H9.74531C9.46086 11.0175 9.22969 11.2486 9.22969 11.5331V17.9733H7.79883C7.51438 17.9733 7.2832 18.2044 7.2832 18.4889C7.2832 18.7733 7.51352 19.0036 7.79883 19.0036ZM24.5111 9.25231V17.9724H22.4864V9.25231H24.5111ZM21.4543 6.49544V17.9733H19.4296V6.49544H21.4543ZM18.3984 14.3347V17.9733H16.3737V14.3347H18.3984ZM15.3424 9.25231V17.9724H13.3177V9.25231H15.3424ZM10.2609 12.0487H12.2856V17.9733H10.2609V12.0487ZM15.9113 24.2347C15.9113 24.5191 15.6802 24.7503 15.3957 24.7503H3.97977C3.69531 24.7503 3.46414 24.5191 3.46414 24.2347C3.46414 23.9502 3.69531 23.719 3.97977 23.719H15.3957C15.6802 23.719 15.9113 23.9502 15.9113 24.2347ZM15.9113 27.4719C15.9113 27.7564 15.6802 27.9875 15.3957 27.9875H3.97977C3.69531 27.9875 3.46414 27.7564 3.46414 27.4719C3.46414 27.1875 3.69531 26.9563 3.97977 26.9563H15.3957C15.6802 26.9563 15.9113 27.1866 15.9113 27.4719ZM15.9113 30.7083C15.9113 30.9928 15.6802 31.2239 15.3957 31.2239H3.97977C3.69531 31.2239 3.46414 30.9928 3.46414 30.7083C3.46414 30.4239 3.69531 30.1927 3.97977 30.1927H15.3957C15.6802 30.1927 15.9113 30.4239 15.9113 30.7083ZM15.9113 33.9456C15.9113 34.23 15.6802 34.4612 15.3957 34.4612H3.97977C3.69531 34.4612 3.46414 34.23 3.46414 33.9456C3.46414 33.6611 3.69531 33.43 3.97977 33.43H15.3957C15.6802 33.43 15.9113 33.6611 15.9113 33.9456ZM15.9113 37.1829C15.9113 37.4673 15.6802 37.6985 15.3957 37.6985H3.97977C3.69531 37.6985 3.46414 37.4673 3.46414 37.1829C3.46414 36.8984 3.69531 36.6672 3.97977 36.6672H15.3957C15.6802 36.6672 15.9113 36.8975 15.9113 37.1829Z" fill="#2F5951"/>
</svg>
