<svg width="45" height="44" viewBox="0 0 45 44" fill="none" xmlns="http://www.w3.org/2000/svg">
<g clip-path="url(#clip0_1027_5214)">
<path d="M38.4838 15.0424V11.9242C39.9736 11.7022 41.1217 10.4162 41.1217 8.86313C41.1217 7.15469 39.7337 5.76457 38.0276 5.76457C36.9916 5.76457 36.0748 6.27744 35.5117 7.06085H27.7681V6.92782C27.7681 5.86185 27.0328 4.95882 26.0197 4.78041C25.4481 4.67969 24.8654 4.81788 24.4062 5.15338C24.2065 4.19191 23.3547 3.46729 22.3368 3.46729C21.3602 3.46729 20.5827 4.11113 20.318 4.94128C19.9591 4.66113 19.5077 4.49407 19.0179 4.49407C18.0843 4.49407 17.2301 5.11144 16.9764 6.07016C16.622 5.80307 16.1813 5.6446 15.7042 5.6446C14.8317 5.6446 14.0277 6.16607 13.7135 7.06119H9.15537C8.59334 6.27779 7.67794 5.76491 6.64359 5.76491C4.93516 5.76491 3.54503 7.15469 3.54503 8.86347C3.54503 10.4152 4.69281 11.7008 6.18331 11.9242V15.0513L0.373937 27.5573C0.359155 27.6223 0.348499 27.5721 0.333374 27.7835C0.351937 31.2485 3.17309 34.0617 6.63947 34.0617C10.1082 34.0617 12.9311 31.2485 12.9497 27.7838C12.9425 27.7371 12.9751 27.7828 12.9088 27.5569L7.10009 15.0434V11.9242C7.94331 11.7984 8.6755 11.3323 9.15297 10.6682H13.586V17.8051C13.586 19.4266 14.1978 20.9511 15.3033 22.1278V23.6224C14.9139 23.7943 14.6409 24.182 14.6409 24.6334V40.0749C14.6409 40.3279 14.8458 40.5332 15.0992 40.5332H26.5732C26.8265 40.5332 27.0314 40.3279 27.0314 40.0749V24.6334C27.0314 24.1817 26.7588 23.7936 26.37 23.622L26.3704 22.1418L30.3238 18.1884C30.8127 17.6999 31.0818 17.0506 31.0818 16.361C31.0818 16.294 31.0818 10.8431 31.0818 10.6678H35.5134C35.9912 11.3309 36.7231 11.7967 37.5663 11.9232V15.0513C37.5443 15.0984 31.7336 27.613 31.7545 27.5659C31.7133 27.6577 31.7222 27.7371 31.7167 27.7831C31.7353 31.2481 34.5564 34.0614 38.0228 34.0614C41.4916 34.0614 44.3141 31.2481 44.3327 27.7835C44.3255 27.6927 44.3485 27.7457 44.2918 27.5566L38.4838 15.0424ZM6.63947 33.1449C3.82072 33.1449 1.50075 30.9693 1.26734 28.208H12.0154C11.7823 30.9693 9.46028 33.1449 6.63947 33.1449ZM11.7751 27.2912H1.50866L6.64394 16.2366L11.7751 27.2912ZM6.64531 11.0446C6.64394 11.0446 6.64291 11.0439 6.64187 11.0439C6.64119 11.0439 6.6405 11.0442 6.63947 11.0442C5.43841 11.0418 4.46181 10.0645 4.46181 8.86278C4.46181 7.65966 5.44047 6.681 6.64359 6.681C7.84397 6.681 8.82091 7.65966 8.82091 8.86278C8.82091 10.0656 7.845 11.0435 6.64531 11.0446ZM13.5863 9.75138H9.60637C9.77928 9.17422 9.78306 8.56647 9.60706 7.97763H13.586C13.5863 8.07594 13.5863 9.7995 13.5863 9.75138ZM24.4498 6.86353C24.4498 6.10832 25.1391 5.55557 25.8599 5.6831C26.4347 5.78416 26.8513 6.30769 26.8513 6.92782V9.75069H24.4505C24.4492 8.6806 24.454 7.05741 24.4461 6.88072C24.4464 6.87454 24.4498 6.86972 24.4498 6.86353ZM21.1354 5.58478C21.1354 4.9595 21.6345 4.38372 22.3365 4.38372C22.9961 4.38372 23.5331 4.92238 23.5331 5.58478C23.5331 6.12791 23.5341 9.9975 23.5341 9.75069H23.3395C23.0862 9.75069 22.8813 9.95591 22.8813 10.2089C22.8813 10.6523 22.9645 11.0755 23.1092 11.4694C22.8896 11.6537 22.6204 11.7589 22.3368 11.7589C21.6747 11.7589 21.1357 11.2202 21.1357 10.5578C21.1354 8.89853 21.1354 7.42075 21.1354 5.58478ZM17.8217 6.61157C17.8217 5.92613 18.3754 5.4105 19.0176 5.4105C19.6796 5.4105 20.2186 5.94916 20.2186 6.61157V11.5846C20.2186 12.2137 19.7167 12.7857 19.0176 12.7857C18.3582 12.7857 17.8217 12.247 17.8217 11.5846C17.8217 11.5403 17.8217 6.81025 17.8217 6.61157ZM14.5031 7.76175C14.5031 7.12375 15.0115 6.56069 15.7042 6.56069C16.3662 6.56069 16.9052 7.09935 16.9052 7.76175V10.3058C16.9052 11.0483 16.2291 11.6152 15.4948 11.4859C14.9204 11.3849 14.5034 10.8613 14.5034 10.2416C14.5031 10.1859 14.5031 7.63182 14.5031 7.76175ZM26.1153 39.6167H15.5581V24.6334C15.5581 24.5288 15.644 24.4439 15.7502 24.4439H25.9263C26.0304 24.4439 26.1157 24.5288 26.1157 24.6334L26.1153 39.6167ZM16.2205 23.5258V22.4113H25.4539L25.4536 23.5258H16.2205ZM30.1654 16.361C30.1654 16.8058 29.9918 17.2248 29.6762 17.5404L25.7231 21.4935L15.9568 21.4932C15.018 20.4884 14.5031 19.1859 14.5031 17.8048V12.0328C14.7475 12.2061 15.0259 12.3343 15.3353 12.3886C15.9083 12.4904 16.4903 12.3512 16.9489 12.0157C17.1486 12.9771 18.0004 13.7021 19.0179 13.7021C19.9852 13.7021 20.7638 13.0734 21.035 12.2271C21.3939 12.5079 21.8463 12.6757 22.3368 12.6757C22.7699 12.6757 23.1838 12.5416 23.5375 12.2968C24.2006 13.2497 25.302 13.876 26.5481 13.876H26.8499V15.854C26.8499 16.107 27.0548 16.3122 27.3081 16.3122C27.5615 16.3122 27.7663 16.107 27.7663 15.854V13.4175C27.7663 13.1645 27.5615 12.9593 27.3081 12.9593H26.5478C25.1875 12.9593 24.0545 11.9665 23.8356 10.6675H27.2139V10.6682H30.1654V16.361ZM34.959 9.75138C34.5936 9.75138 33.079 9.75138 27.7677 9.75069V7.97728H35.059C34.8847 8.55994 34.8847 9.16803 35.0597 9.75103C35.0064 9.75138 34.9762 9.75138 34.959 9.75138ZM35.8455 8.86278C35.8455 7.65966 36.8245 6.681 38.0276 6.681C39.228 6.681 40.2049 7.65966 40.2049 8.86278C40.2049 10.0656 39.229 11.0439 38.029 11.0446C38.0276 11.0446 38.0266 11.0439 38.0252 11.0439C38.0245 11.0439 38.0238 11.0442 38.0228 11.0442C36.8221 11.0418 35.8455 10.0645 35.8455 8.86278ZM38.0276 16.2369L43.1588 27.2916H32.8923L38.0276 16.2369ZM38.0235 33.1449C35.2047 33.1449 32.8848 30.9693 32.6514 28.208H43.3987C43.166 30.9693 40.844 33.1449 38.0235 33.1449Z" fill="#2F5951"/>
</g>
<defs>
<clipPath id="clip0_1027_5214">
<rect width="44" height="44" fill="white" transform="translate(0.333374 0.000244141)"/>
</clipPath>
</defs>
</svg>
